<svg xmlns="http://www.w3.org/2000/svg" width="520" height="520" viewBox="0 0 520 520">
  <rect width="520" height="520" rx="36" fill="#17201d"/>
  <rect x="42" y="42" width="436" height="436" rx="26" fill="#22302b" stroke="#3d514b" stroke-width="4"/>
  <g fill="#25d8c8">
    <rect x="88" y="88" width="104" height="104" rx="10"/>
    <rect x="328" y="88" width="104" height="104" rx="10"/>
    <rect x="88" y="328" width="104" height="104" rx="10"/>
  </g>
  <g fill="#17201d">
    <rect x="118" y="118" width="44" height="44" rx="6"/>
    <rect x="358" y="118" width="44" height="44" rx="6"/>
    <rect x="118" y="358" width="44" height="44" rx="6"/>
  </g>
  <g fill="#f4fbf8" opacity="0.9">
    <rect x="230" y="92" width="36" height="36" rx="6"/>
    <rect x="272" y="92" width="22" height="64" rx="5"/>
    <rect x="224" y="166" width="70" height="22" rx="5"/>
    <rect x="326" y="226" width="86" height="28" rx="6"/>
    <rect x="286" y="266" width="32" height="82" rx="6"/>
    <rect x="334" y="292" width="32" height="32" rx="6"/>
    <rect x="398" y="292" width="32" height="82" rx="6"/>
    <rect x="230" y="382" width="64" height="28" rx="6"/>
    <rect x="326" y="398" width="92" height="28" rx="6"/>
    <rect x="226" y="226" width="72" height="72" rx="8"/>
    <rect x="92" y="226" width="92" height="28" rx="6"/>
    <rect x="132" y="266" width="28" height="38" rx="6"/>
  </g>
  <text x="260" y="476" text-anchor="middle" font-family="Segoe UI, Arial, sans-serif" font-size="22" font-weight="700" fill="#aab8b2">WeChat QR placeholder</text>
</svg>
